HIERARCHY
ROOT joint_Root
{
	OFFSET 0.0 0.0 0.0
	CHANNELS 6 Xposition Yposition Zposition Zrotation Xrotation Yrotation 
	JOINT Hips
	{
		OFFSET -0.726466 93.3139 -2.00062
		CHANNELS 6 Xposition Yposition Zposition Zrotation Xrotation Yrotation 
		JOINT Spine
		{
			OFFSET 15.7357 0.0 0.0
			CHANNELS 6 Xposition Yposition Zposition Zrotation Xrotation Yrotation 
			JOINT Chest
			{
				OFFSET 8.98455 -0.406207 0.0
				CHANNELS 6 Xposition Yposition Zposition Zrotation Xrotation Yrotation 
				JOINT Neck
				{
					OFFSET 16.3773 0.0 0.0
					CHANNELS 6 Xposition Yposition Zposition Zrotation Xrotation Yrotation 
					JOINT Head
					{
						OFFSET 6.45672 0.0 0.0
						CHANNELS 6 Xposition Yposition Zposition Zrotation Xrotation Yrotation 
						End Site
						{
							OFFSET 0.0 0.0 0.0
						}
					}
				}
				JOINT Shoulder_L
				{
					OFFSET 12.9942 -0.242716 4.98039
					CHANNELS 6 Xposition Yposition Zposition Zrotation Xrotation Yrotation 
					JOINT UpperArm_L
					{
						OFFSET 5.34809 0.0 0.0
						CHANNELS 6 Xposition Yposition Zposition Zrotation Xrotation Yrotation 
						JOINT LowerArm_L
						{
							OFFSET 24.3286 1.87007e-05 0.0
							CHANNELS 6 Xposition Yposition Zposition Zrotation Xrotation Yrotation 
							JOINT Hand_L
							{
								OFFSET 22.2916 0.0 0.0
								CHANNELS 6 Xposition Yposition Zposition Zrotation Xrotation Yrotation 
								End Site
								{
									OFFSET 0.0 0.0 0.0
								}
							}
						}
					}
				}
				JOINT Shoulder_R
				{
					OFFSET 12.9945 -0.242716 -4.98039
					CHANNELS 6 Xposition Yposition Zposition Zrotation Xrotation Yrotation 
					JOINT UpperArm_R
					{
						OFFSET -5.34813 0.0 0.0
						CHANNELS 6 Xposition Yposition Zposition Zrotation Xrotation Yrotation 
						JOINT LowerArm_R
						{
							OFFSET -24.3289 0.000322201 0.0
							CHANNELS 6 Xposition Yposition Zposition Zrotation Xrotation Yrotation 
							JOINT Hand_R
							{
								OFFSET -22.2915 -0.000108084 0.0
								CHANNELS 6 Xposition Yposition Zposition Zrotation Xrotation Yrotation 
								End Site
								{
									OFFSET 0.0 0.0 0.0
								}
							}
						}
					}
				}
			}
		}
		JOINT UpperLeg_L
		{
			OFFSET -2.19248 -6.46944 0.0
			CHANNELS 6 Xposition Yposition Zposition Zrotation Xrotation Yrotation 
			JOINT LowerLeg_L
			{
				OFFSET 39.0811 0.0 -1.23785e-05
				CHANNELS 6 Xposition Yposition Zposition Zrotation Xrotation Yrotation 
				JOINT Foot_L
				{
					OFFSET 40.9854 0.0 -1.26872e-05
					CHANNELS 6 Xposition Yposition Zposition Zrotation Xrotation Yrotation 
					JOINT Toes_L
					{
						OFFSET 11.7543 0.0 0.0
						CHANNELS 6 Xposition Yposition Zposition Zrotation Xrotation Yrotation 
						End Site
						{
							OFFSET 0.0 0.0 0.0
						}
					}
				}
			}
		}
		JOINT UpperLeg_R
		{
			OFFSET -2.19251 6.46944 0.0
			CHANNELS 6 Xposition Yposition Zposition Zrotation Xrotation Yrotation 
			JOINT LowerLeg_R
			{
				OFFSET -39.0811 -0.00228153 -0.0401928
				CHANNELS 6 Xposition Yposition Zposition Zrotation Xrotation Yrotation 
				JOINT Foot_R
				{
					OFFSET -40.9854 0.0 0.0
					CHANNELS 6 Xposition Yposition Zposition Zrotation Xrotation Yrotation 
					JOINT Toes_R
					{
						OFFSET -11.7543 0.0 0.0
						CHANNELS 6 Xposition Yposition Zposition Zrotation Xrotation Yrotation 
						End Site
						{
							OFFSET 0.0 0.0 0.0
						}
					}
				}
			}
		}
	}
}
MOTION
Frames:	8
Frame Time:	0.0333333
0.000000 0.000000 0.000000 0.000000 0.000000 -0.000000 -1.760230 93.028000 -1.580620 89.050800 -1.942140 1.102540 15.735700 0.000005 -0.000001 97.473000 86.601400 -97.583900 8.984550 -0.406207 -0.000000 -1.025730 0.892359 -0.213823 16.377300 -0.000001 -0.000001 1.617170 -3.097630 4.162550 6.456720 -0.000001 -0.000000 7.130710 -1.863690 -4.317430 12.994200 -0.242716 4.980390 -90.358400 1.123680 -72.308500 5.348090 -0.000007 -0.000001 -69.676800 36.460700 -11.214400 24.328600 0.000019 0.000005 3.892080 9.982020 -21.429400 22.291600 -0.000001 0.000005 3.547180 5.483740 -5.892290 12.994500 -0.242716 -4.980390 87.656500 7.813680 -73.246800 -5.348130 -0.000001 -0.000004 -64.787700 35.714500 -12.967000 -24.328900 0.000322 -0.000009 2.454490 6.959900 -19.488500 -22.291500 -0.000108 -0.000004 9.093380 5.294430 0.227956 -2.192480 -6.469440 -0.000000 -176.247000 -9.413950 -3.528630 39.081100 -0.000007 -0.000012 -0.062080 0.206435 16.737300 40.985400 -0.000006 -0.000013 -0.828258 4.398390 -62.133800 11.754300 -0.000000 0.000003 -0.000004 -0.000053 -16.579600 -2.192510 6.469440 -0.000001 179.986000 12.347300 179.137000 -39.081100 -0.002282 -0.040193 -0.046256 0.203085 13.721700 -40.985400 0.000008 0.000006 1.659470 6.863080 -62.148900 -11.754300 -0.000006 -0.000006 -0.006135 -0.072056 -19.505800
0.000000 0.000000 0.000000 0.000000 0.000000 -0.000000 -1.755470 93.035200 -1.601040 89.042900 -1.900580 1.119900 15.735700 0.000005 -0.000001 97.206900 86.561600 -97.339500 8.984550 -0.406207 -0.000000 -0.942592 0.872598 -0.257832 16.377300 -0.000001 -0.000001 1.600050 -3.023330 4.156470 6.456720 -0.000001 -0.000000 6.938780 -1.801370 -4.342870 12.994200 -0.242716 4.980390 -90.347500 1.086780 -72.267700 5.348090 -0.000007 -0.000001 -69.726900 36.419500 -11.214000 24.328600 0.000019 0.000005 3.865020 9.876400 -21.498300 22.291600 -0.000001 0.000005 3.577710 5.483390 -5.878490 12.994500 -0.242716 -4.980390 87.638300 7.833290 -73.163600 -5.348130 -0.000001 -0.000004 -63.853900 35.452300 -13.560100 -24.328900 0.000322 -0.000009 2.897890 7.567560 -21.031300 -22.291500 -0.000108 -0.000004 7.632210 5.297150 0.152807 -2.192480 -6.469440 -0.000000 -176.247000 -9.347430 -3.506350 39.081100 -0.000007 -0.000012 -0.060874 0.203018 16.690900 40.985400 -0.000006 -0.000013 -0.827083 4.377980 -62.096500 11.754300 -0.000000 0.000003 -0.000005 -0.000064 -16.580000 -2.192510 6.469440 -0.000001 -179.983000 12.347900 179.157000 -39.081100 -0.002282 -0.040193 -0.044089 0.194731 13.686500 -40.985400 0.000008 0.000006 1.765740 6.777870 -62.132500 -11.754300 -0.000006 -0.000006 -0.006165 -0.072329 -19.516900
0.000000 0.000000 0.000000 0.000000 0.000000 -0.000000 -1.737650 93.039900 -1.636090 89.052500 -1.879850 1.087140 15.735700 0.000005 -0.000001 96.713700 86.546500 -96.880500 8.984550 -0.406207 -0.000000 -0.905165 0.819945 -0.327021 16.377300 -0.000001 -0.000001 1.600940 -2.965640 4.185230 6.456720 -0.000001 -0.000000 6.764270 -1.614730 -4.365750 12.994200 -0.242716 4.980390 -90.327500 1.024030 -72.264400 5.348090 -0.000007 -0.000001 -69.846800 36.257700 -11.074200 24.328600 0.000019 0.000005 3.899560 9.901170 -21.624500 22.291600 -0.000001 0.000005 3.568750 5.483710 -5.891080 12.994500 -0.242716 -4.980390 87.587000 7.838480 -72.829700 -5.348130 -0.000001 -0.000004 -62.097600 34.513000 -14.860800 -24.328900 0.000322 -0.000009 3.755030 8.659760 -23.555200 -22.291500 -0.000108 -0.000004 5.467580 5.304730 -0.062923 -2.192480 -6.469440 -0.000000 -176.274000 -9.391780 -3.559700 39.081100 -0.000007 -0.000012 -0.060930 0.203501 16.668100 40.985400 -0.000006 -0.000013 -0.812165 4.403320 -62.054900 11.754300 -0.000000 0.000003 -0.000005 -0.000066 -16.580100 -2.192510 6.469440 -0.000001 -179.990000 12.298500 179.095000 -39.081100 -0.002282 -0.040193 -0.044357 0.195912 13.681100 -40.985400 0.000008 0.000006 1.732180 6.728620 -62.094400 -11.754300 -0.000006 -0.000006 -0.006019 -0.071012 -19.463200
0.000000 0.000000 0.000000 0.000000 0.000000 -0.000000 -1.687990 93.047700 -1.677720 89.070600 -1.882880 1.056210 15.735700 0.000005 -0.000001 95.691600 86.548800 -95.902000 8.984550 -0.406207 -0.000000 -0.896283 0.700313 -0.415191 16.377300 -0.000001 -0.000001 1.679590 -2.933520 4.288770 6.456720 -0.000001 -0.000000 6.619800 -1.316430 -4.427390 12.994200 -0.242716 4.980390 -90.293800 0.917213 -72.237700 5.348090 -0.000007 -0.000001 -70.067000 35.978400 -10.854500 24.328600 0.000019 0.000005 3.960380 10.047400 -21.644400 22.291600 -0.000001 0.000005 3.594980 5.482860 -5.858220 12.994500 -0.242716 -4.980390 87.544900 7.714380 -72.286100 -5.348130 -0.000001 -0.000004 -59.555800 32.652600 -16.994000 -24.328900 0.000322 -0.000009 4.959800 9.701310 -27.251100 -22.291500 -0.000108 -0.000004 3.605920 5.306380 -0.107187 -2.192480 -6.469440 -0.000000 -176.345000 -9.378800 -3.608660 39.081100 -0.000007 -0.000012 -0.059902 0.200628 16.624100 40.985400 -0.000006 -0.000013 -0.777941 4.359370 -62.000900 11.754300 -0.000000 0.000003 -0.000004 -0.000060 -16.579800 -2.192510 6.469440 -0.000001 179.971000 12.242400 179.033000 -39.081100 -0.002282 -0.040193 -0.044444 0.196315 13.678200 -40.985400 0.000008 0.000006 1.743250 6.697700 -62.062400 -11.754300 -0.000006 -0.000006 -0.006163 -0.072312 -19.516200
0.000000 0.000000 0.000000 0.000000 0.000000 -0.000000 -1.630480 93.057400 -1.731600 89.058400 -2.008370 0.964345 15.735700 0.000005 -0.000001 94.497300 86.584300 -94.748000 8.984550 -0.406207 -0.000000 -0.954395 0.554630 -0.496620 16.377300 -0.000001 -0.000001 1.812470 -2.909530 4.392360 6.456720 -0.000001 -0.000000 6.566350 -1.021270 -4.383090 12.994200 -0.242716 4.980390 -90.274600 0.852385 -72.144600 5.348090 -0.000007 -0.000001 -70.233300 35.699300 -10.637800 24.328600 0.000019 0.000005 3.928050 10.016900 -21.542200 22.291600 -0.000001 0.000005 3.653140 5.481780 -5.816550 12.994500 -0.242716 -4.980390 87.582200 7.350170 -71.734700 -5.348130 -0.000001 -0.000004 -56.468800 29.811300 -19.860800 -24.328900 0.000322 -0.000009 5.946030 9.616110 -31.948700 -22.291500 -0.000108 -0.000004 3.091680 5.303470 -0.025151 -2.192480 -6.469440 -0.000000 -176.380000 -9.545990 -3.691130 39.081100 -0.000007 -0.000012 -0.059327 0.199289 16.577800 40.985400 -0.000006 -0.000013 -0.728938 4.436110 -61.963300 11.754300 -0.000000 0.000003 -0.000003 -0.000048 -16.579400 -2.192510 6.469440 -0.000001 179.984000 12.121500 178.914000 -39.081100 -0.002282 -0.040193 -0.043938 0.195254 13.609300 -40.985400 0.000008 0.000006 1.654160 6.679540 -61.954800 -11.754300 -0.000006 -0.000006 -0.006477 -0.075105 -19.630100
0.000000 0.000000 0.000000 0.000000 0.000000 -0.000000 -1.538820 93.066900 -1.779400 89.031300 -2.194380 0.994010 15.735700 0.000005 -0.000001 93.691200 86.586100 -93.990600 8.984550 -0.406207 -0.000000 -0.951208 0.462237 -0.594681 16.377300 -0.000001 -0.000001 1.953030 -2.937440 4.570780 6.456720 -0.000001 -0.000000 6.561630 -0.833368 -4.352850 12.994200 -0.242716 4.980390 -90.283900 0.876129 -72.046000 5.348090 -0.000007 -0.000001 -70.245200 35.428300 -10.504900 24.328600 0.000019 0.000005 3.995230 10.269300 -21.393500 22.291600 -0.000001 0.000005 3.656290 5.479940 -5.746170 12.994500 -0.242716 -4.980390 87.654600 6.876780 -71.115300 -5.348130 -0.000001 -0.000004 -53.031300 25.892300 -23.379600 -24.328900 0.000322 -0.000009 6.313680 8.381270 -37.208700 -22.291500 -0.000108 -0.000004 3.693510 5.294930 0.214144 -2.192480 -6.469440 -0.000000 -176.417000 -9.707550 -3.671330 39.081100 -0.000007 -0.000012 -0.058373 0.196213 16.567600 40.985400 -0.000006 -0.000013 -0.675210 4.346640 -61.941000 11.754300 -0.000000 0.000003 -0.000004 -0.000059 -16.579800 -2.192510 6.469440 -0.000001 179.956000 11.971700 178.935000 -39.081100 -0.002282 -0.040193 -0.042651 0.191098 13.529700 -40.985400 0.000008 0.000006 1.597080 6.735260 -61.854100 -11.754300 -0.000006 -0.000006 -0.005920 -0.070102 -19.426100
0.000000 0.000000 0.000000 0.000000 0.000000 -0.000000 -1.445780 93.076300 -1.832340 89.011600 -2.499240 1.010900 15.735700 0.000005 -0.000001 93.362100 86.582900 -93.707600 8.984550 -0.406207 -0.000000 -0.942216 0.426969 -0.687258 16.377300 -0.000001 -0.000001 2.148740 -2.973900 4.693610 6.456720 -0.000001 -0.000000 6.467330 -0.766534 -4.264430 12.994200 -0.242716 4.980390 -90.294000 0.901450 -71.935400 5.348090 -0.000007 -0.000001 -70.249200 35.170000 -10.421700 24.328600 0.000019 0.000005 4.107180 10.646800 -21.239000 22.291600 -0.000001 0.000005 3.855460 5.479080 -5.713040 12.994500 -0.242716 -4.980390 87.753900 6.340160 -70.446100 -5.348130 -0.000001 -0.000004 -49.418600 20.820600 -27.756900 -24.328900 0.000322 -0.000009 6.632920 7.320260 -42.390900 -22.291500 -0.000108 -0.000004 4.187730 5.288510 0.392377 -2.192480 -6.469440 -0.000000 -176.470000 -9.799720 -3.627440 39.081100 -0.000007 -0.000012 -0.056829 0.191474 16.530600 40.985400 -0.000006 -0.000013 -0.631938 4.177950 -61.928900 11.754300 -0.000000 0.000003 -0.000004 -0.000057 -16.579700 -2.192510 6.469440 -0.000001 179.911000 11.806100 178.908000 -39.081100 -0.002282 -0.040193 -0.041842 0.188222 13.496200 -40.985400 0.000008 0.000006 1.596120 6.885180 -61.772300 -11.754300 -0.000006 -0.000006 -0.006061 -0.071387 -19.478500
0.000000 0.000000 0.000000 0.000000 0.000000 -0.000000 -1.355280 93.082800 -1.884110 88.964400 -2.776180 1.026540 15.735700 0.000005 -0.000001 93.174500 86.584400 -93.553000 8.984550 -0.406207 -0.000000 -0.943768 0.406971 -0.753238 16.377300 -0.000001 -0.000001 2.317820 -3.035370 4.836030 6.456720 -0.000001 -0.000000 6.480270 -0.819893 -4.211100 12.994200 -0.242716 4.980390 -90.291500 0.887298 -71.815900 5.348090 -0.000007 -0.000001 -70.276700 34.902200 -10.413200 24.328600 0.000019 0.000005 4.111450 10.728700 -21.112900 22.291600 -0.000001 0.000005 3.909220 5.478150 -5.677630 12.994500 -0.242716 -4.980390 87.912700 5.733470 -69.956500 -5.348130 -0.000001 -0.000004 -45.834400 14.855500 -32.669800 -24.328900 0.000322 -0.000009 6.969410 6.547970 -46.995000 -22.291500 -0.000108 -0.000004 5.017410 5.270290 0.887810 -2.192480 -6.469440 -0.000000 -176.489000 -9.987620 -3.635610 39.081100 -0.000007 -0.000012 -0.056540 0.190076 16.565500 40.985400 -0.000006 -0.000013 -0.584389 4.039870 -61.933500 11.754300 -0.000000 0.000003 -0.000004 -0.000054 -16.579600 -2.192510 6.469440 -0.000001 179.910000 11.624300 178.874000 -39.081100 -0.002282 -0.040193 -0.040369 0.182372 13.475800 -40.985400 0.000008 0.000006 1.643790 6.980300 -61.704400 -11.754300 -0.000006 -0.000006 -0.006002 -0.070856 -19.456800
